Coordinates
version=1
nRows=19
nColumns=24
inDegrees=yes

Units are S.I. units (second, meters, Newtons, ...)
Angles are in degrees.

endheader
time	pelvis_tilt	pelvis_list	pelvis_rotation	pelvis_tx	pelvis_ty	pelvis_tz	hip_flexion_r	hip_adduction_r	hip_rotation_r	knee_angle_r	ankle_angle_r	subtalar_angle_r	mtp_angle_r	hip_flexion_l	hip_adduction_l	hip_rotation_l	knee_angle_l	ankle_angle_l	subtalar_angle_l	mtp_angle_l	lumbar_extension	lumbar_bending	lumbar_rotation
      0.85850000	     -1.00397635	      0.77575572	      3.38499921	     -0.32336030	      1.08227214	      0.33195637	      7.62691597	      1.59894144	     -4.65997350	    -13.21384882	      9.31133536	     -3.23619563	      2.53219170	     17.50597517	     -3.12663810	     -3.74593125	    -65.04434730	     11.07264951	      7.24073251	      2.16954208	     -4.42501872	      5.18949607	     -1.53529147
      0.86266667	     -1.02014524	      0.91146441	      3.21648168	     -0.31861398	      1.08282288	      0.33257329	      7.22524293	      1.52058868	     -4.47834151	    -12.91378574	      9.38209229	     -3.19217442	      2.52199571	     17.94261482	     -3.02351525	     -4.00682526	    -64.44975826	     11.25720184	      7.34902982	      2.15896661	     -4.41527371	      4.99380603	     -1.47591510
      0.86683333	     -0.99823062	      1.03357567	      3.04610677	     -0.31388926	      1.08340907	      0.33319789	      6.76853833	      1.46520925	     -4.23378388	    -12.57781887	      9.44812226	     -3.28559286	      2.49027948	     18.32840088	     -2.94312055	     -4.26595760	    -63.81459873	     11.41459628	      7.51020385	      2.12516248	     -4.45453734	      4.82341647	     -1.21705008
      0.87100000	     -1.01202073	      1.16124921	      2.88195871	     -0.30917869	      1.08388206	      0.33378044	      6.36996685	      1.38837028	     -4.06158400	    -12.28152566	      9.51843558	     -3.24282688	      2.48128641	     18.74941830	     -2.84888493	     -4.51787422	    -63.15451738	     11.56145926	      7.60187617	      2.11486011	     -4.44658605	      4.64768692	     -1.17967676
      0.87516667	     -1.01259417	      1.28915404	      2.70697845	     -0.30447823	      1.08434596	      0.33439245	      5.94842186	      1.31927163	     -3.80936035	    -11.96356068	      9.57697382	     -3.35005141	      2.44778787	     19.14059711	     -2.75910114	     -4.77189006	    -62.44965347	     11.68478118	      7.72374817	      2.07691420	     -4.46493784	      4.47380701	     -0.92914665
      0.87933333	     -1.03232850	      1.40954631	      2.54978406	     -0.29978186	      1.08472198	      0.33494640	      5.56189404	      1.24366477	     -3.64927137	    -11.67626339	      9.66132162	     -3.31400716	      2.43952788	     19.55265996	     -2.67052295	     -5.00759981	    -61.72634340	     11.79586680	      7.79407863	      2.06544089	     -4.44803910	      4.30944197	     -0.90348459
      0.88350000	     -1.03828350	      1.53369874	      2.38888579	     -0.29511077	      1.08507970	      0.33551081	      5.16241596	      1.16522101	     -3.46446423	    -11.38965092	      9.75241292	     -3.31654431	      2.43046187	     19.93847639	     -2.58025216	     -5.24326592	    -60.96550566	     11.88688489	      7.86535269	      2.05235981	     -4.45496210	      4.13850450	     -0.82787469
      0.88766667	     -1.02348624	      1.64399830	      2.22656352	     -0.29047275	      1.08542635	      0.33605718	      4.73267144	      1.10506122	     -3.22342005	    -11.07812326	      9.80084389	     -3.45259265	      2.39825503	     20.29383223	     -2.50254706	     -5.46591307	    -60.17452668	     11.95889557	      7.91476384	      2.01213616	     -4.49953775	      3.99004202	     -0.57414361
      0.89183333	     -1.04799226	      1.75754857	      2.07419701	     -0.28581397	      1.08567127	      0.33657608	      4.35943170	      1.03098777	     -3.04367119	    -10.80180192	      9.89023169	     -3.48801290	      2.37526721	     20.68296415	     -2.41591205	     -5.67709106	    -59.35366413	     12.01222334	      7.93621390	      1.97855548	     -4.48081181	      3.83810566	     -0.48845691
      0.89600000	     -1.07493459	      1.86971899	      1.92234575	     -0.28118808	      1.08584993	      0.33706920	      4.00308369	      0.95157509	     -2.88873086	    -10.55071219	      9.97936902	     -3.47377644	      2.36545997	     21.06769622	     -2.32790492	     -5.88010017	    -58.50748072	     12.07056508	      7.94957984	      1.96116159	     -4.46954406	      3.69795886	     -0.44986041
      0.90016667	     -1.11093175	      1.96739529	      1.78214797	     -0.27656898	      1.08596574	      0.33754606	      3.64639535	      0.89023761	     -2.69897914	    -10.27637320	     10.06888358	     -3.54570571	      2.34143587	     21.45905975	     -2.25029520	     -6.06124830	    -57.64111946	     12.08779259	      7.89979218	      1.92319233	     -4.44888785	      3.55255029	     -0.30041797
      0.90433333	     -1.14503447	      2.06709683	      1.63961937	     -0.27196632	      1.08605627	      0.33799611	      3.30521886	      0.81890306	     -2.54912991	    -10.03734853	     10.16014296	     -3.54130244	      2.33095512	     21.83408622	     -2.16772305	     -6.23667738	    -56.73846635	     12.11977430	      7.87374602	      1.90310840	     -4.43402818	      3.42629408	     -0.26712647
      0.90850000	     -1.19205953	      2.16016499	      1.50650343	     -0.26737808	      1.08606296	      0.33842214	      2.98051493	      0.75238644	     -2.39757509	     -9.80345326	     10.26460117	     -3.56062457	      2.31982162	     22.21814333	     -2.08680964	     -6.39236185	    -55.81542104	     12.12612302	      7.79500316	      1.88055645	     -4.40698666	      3.30076448	     -0.20732087
      0.91266667	     -1.22370541	      2.24902071	      1.37737238	     -0.26281473	      1.08607224	      0.33882352	      2.64100096	      0.68823711	     -2.24973291	     -9.56893560	     10.36584538	     -3.58130697	      2.30839063	     22.57514529	     -2.00529127	     -6.53459455	    -54.86015646	     12.11860177	      7.69161744	      1.85680793	     -4.40177974	      3.18247703	     -0.14468808
      0.91683333	     -1.27219876	      2.32962156	      1.25318303	     -0.25825119	      1.08599164	      0.33920211	      2.32641977	      0.62942602	     -2.10952111	     -9.34966087	     10.47426696	     -3.60254813	      2.29700724	     22.94138661	     -1.92809074	     -6.65899221	    -53.88374472	     12.10476349	      7.56493074	      1.83179993	     -4.37592366	      3.07236655	     -0.08264887
      0.92100000	     -1.32953145	      2.38940387	      1.14459514	     -0.25369136	      1.08584963	      0.33954104	      2.01463412	      0.59062805	     -1.98064385	     -9.11436099	     10.58672828	     -3.59858700	      2.28901574	     23.31641357	     -1.86963895	     -6.76701435	    -52.89992355	     12.09670415	      7.43653452	      1.81122036	     -4.34557840	      2.98241644	     -0.04301688
      0.92516667	     -1.37012794	      2.46382659	      1.02515747	     -0.24918837	      1.08571301	      0.33987537	      1.71038993	      0.53314597	     -1.85327510	     -8.92920569	     10.69774721	     -3.63222755	      2.27514864	     23.65248398	     -1.78625392	     -6.85770281	    -51.86230845	     12.04788612	      7.23914585	      1.78075649	     -4.33908573	      2.89352969	      0.02049472
      0.92933333	     -1.43514924	      2.52169889	      0.91874251	     -0.24466202	      1.08547922	      0.34017127	      1.42598475	      0.48947089	     -1.73497394	     -8.73252610	     10.81655238	     -3.63852309	      2.26254037	     24.01021457	     -1.71784682	     -6.93386076	    -50.81636621	     12.01258637	      7.05115627	      1.75123014	     -4.30488966	      2.81247339	      0.06394310
      0.93350000	     -1.50469296	      2.57065819	      0.81610011	     -0.24014794	      1.08519604	      0.34045015	      1.15217648	      0.45376181	     -1.62561888	     -8.54677063	     10.94087925	     -3.63490570	      2.25069839	     24.36290953	     -1.65536968	     -6.99511058	    -49.74802072	     11.97291461	      6.85360879	      1.72236265	     -4.26648357	      2.74855783	      0.09673676
